<svg xmlns="http://www.w3.org/2000/svg" width="900" height="680" viewBox="0 0 900 680">
<rect width="100%" height="100%" fill="white"/>
<text x="450.0" y="32" font-size="22" text-anchor="middle" font-family="Arial">Design space visited; color indicates crew remaining</text>
<line x1="80" y1="610" x2="850" y2="610" stroke="#333"/>
<line x1="80" y1="610" x2="80" y2="60" stroke="#333"/>
<circle cx="122.1" cy="580.1" r="6" fill="rgb(180,90,120)" />
<text x="130.1" y="572.1" font-size="12" font-family="Arial">1</text>
<circle cx="807.9" cy="89.9" r="6" fill="rgb(20,185,120)" />
<text x="815.9" y="81.9" font-size="12" font-family="Arial">2</text>
<circle cx="807.9" cy="89.9" r="6" fill="rgb(20,185,120)" />
<text x="815.9" y="81.9" font-size="12" font-family="Arial">3</text>
<circle cx="807.9" cy="89.9" r="6" fill="rgb(20,185,120)" />
<text x="815.9" y="81.9" font-size="12" font-family="Arial">4</text>
<circle cx="807.9" cy="89.9" r="6" fill="rgb(20,185,120)" />
<text x="815.9" y="81.9" font-size="12" font-family="Arial">5</text>
<circle cx="807.9" cy="89.9" r="6" fill="rgb(20,185,120)" />
<text x="815.9" y="81.9" font-size="12" font-family="Arial">6</text>
<circle cx="807.9" cy="89.9" r="6" fill="rgb(20,185,120)" />
<text x="815.9" y="81.9" font-size="12" font-family="Arial">7</text>
<circle cx="807.9" cy="89.9" r="6" fill="rgb(20,185,120)" />
<text x="815.9" y="81.9" font-size="12" font-family="Arial">8</text>
<circle cx="807.9" cy="89.9" r="6" fill="rgb(20,185,120)" />
<text x="815.9" y="81.9" font-size="12" font-family="Arial">9</text>
<circle cx="807.9" cy="89.9" r="6" fill="rgb(20,185,120)" />
<text x="815.9" y="81.9" font-size="12" font-family="Arial">10</text>
<circle cx="807.9" cy="89.9" r="6" fill="rgb(20,185,120)" />
<text x="815.9" y="81.9" font-size="12" font-family="Arial">11</text>
<circle cx="807.9" cy="89.9" r="6" fill="rgb(20,185,120)" />
<text x="815.9" y="81.9" font-size="12" font-family="Arial">12</text>
<circle cx="807.9" cy="89.9" r="6" fill="rgb(20,185,120)" />
<text x="815.9" y="81.9" font-size="12" font-family="Arial">13</text>
<circle cx="807.9" cy="89.9" r="6" fill="rgb(20,185,120)" />
<text x="815.9" y="81.9" font-size="12" font-family="Arial">14</text>
<circle cx="807.9" cy="89.9" r="6" fill="rgb(20,185,120)" />
<text x="815.9" y="81.9" font-size="12" font-family="Arial">15</text>
<circle cx="807.9" cy="89.9" r="6" fill="rgb(20,185,120)" />
<text x="815.9" y="81.9" font-size="12" font-family="Arial">16</text>
<circle cx="807.9" cy="89.9" r="6" fill="rgb(20,185,120)" />
<text x="815.9" y="81.9" font-size="12" font-family="Arial">17</text>
<circle cx="807.9" cy="89.9" r="6" fill="rgb(20,185,120)" />
<text x="815.9" y="81.9" font-size="12" font-family="Arial">18</text>
<circle cx="807.9" cy="89.9" r="6" fill="rgb(20,185,120)" />
<text x="815.9" y="81.9" font-size="12" font-family="Arial">19</text>
<circle cx="807.9" cy="89.9" r="6" fill="rgb(20,185,120)" />
<text x="815.9" y="81.9" font-size="12" font-family="Arial">20</text>
<circle cx="807.9" cy="89.9" r="6" fill="rgb(20,185,120)" />
<text x="815.9" y="81.9" font-size="12" font-family="Arial">21</text>
<circle cx="807.9" cy="89.9" r="6" fill="rgb(20,185,120)" />
<text x="815.9" y="81.9" font-size="12" font-family="Arial">22</text>
<circle cx="807.9" cy="89.9" r="6" fill="rgb(20,185,120)" />
<text x="815.9" y="81.9" font-size="12" font-family="Arial">23</text>
<circle cx="807.9" cy="89.9" r="6" fill="rgb(20,185,120)" />
<text x="815.9" y="81.9" font-size="12" font-family="Arial">24</text>
<circle cx="807.9" cy="89.9" r="6" fill="rgb(20,185,120)" />
<text x="815.9" y="81.9" font-size="12" font-family="Arial">25</text>
<circle cx="807.9" cy="89.9" r="6" fill="rgb(20,185,120)" />
<text x="815.9" y="81.9" font-size="12" font-family="Arial">26</text>
<circle cx="807.9" cy="89.9" r="6" fill="rgb(20,185,120)" />
<text x="815.9" y="81.9" font-size="12" font-family="Arial">27</text>
<circle cx="807.9" cy="89.9" r="6" fill="rgb(20,185,120)" />
<text x="815.9" y="81.9" font-size="12" font-family="Arial">28</text>
<circle cx="807.9" cy="89.9" r="6" fill="rgb(20,185,120)" />
<text x="815.9" y="81.9" font-size="12" font-family="Arial">29</text>
<circle cx="807.9" cy="89.9" r="6" fill="rgb(20,185,120)" />
<text x="815.9" y="81.9" font-size="12" font-family="Arial">30</text>
<circle cx="807.9" cy="89.9" r="6" fill="rgb(20,185,120)" />
<text x="815.9" y="81.9" font-size="12" font-family="Arial">31</text>
<circle cx="807.9" cy="89.9" r="6" fill="rgb(20,185,120)" />
<text x="815.9" y="81.9" font-size="12" font-family="Arial">32</text>
<circle cx="807.9" cy="89.9" r="6" fill="rgb(20,185,120)" />
<text x="815.9" y="81.9" font-size="12" font-family="Arial">33</text>
<circle cx="807.9" cy="89.9" r="6" fill="rgb(36,175,120)" />
<circle cx="807.9" cy="89.9" r="6" fill="rgb(20,185,120)" />
<text x="815.9" y="81.9" font-size="12" font-family="Arial">35</text>
<circle cx="807.9" cy="89.9" r="6" fill="rgb(20,185,120)" />
<text x="815.9" y="81.9" font-size="12" font-family="Arial">36</text>
<circle cx="807.9" cy="89.9" r="6" fill="rgb(20,185,120)" />
<text x="815.9" y="81.9" font-size="12" font-family="Arial">37</text>
<circle cx="807.9" cy="89.9" r="6" fill="rgb(20,185,120)" />
<text x="815.9" y="81.9" font-size="12" font-family="Arial">38</text>
<circle cx="807.9" cy="89.9" r="6" fill="rgb(20,185,120)" />
<text x="815.9" y="81.9" font-size="12" font-family="Arial">39</text>
<circle cx="807.9" cy="89.9" r="6" fill="rgb(20,185,120)" />
<text x="815.9" y="81.9" font-size="12" font-family="Arial">40</text>
<circle cx="807.9" cy="89.9" r="6" fill="rgb(20,185,120)" />
<text x="815.9" y="81.9" font-size="12" font-family="Arial">41</text>
<circle cx="807.9" cy="89.9" r="6" fill="rgb(20,185,120)" />
<text x="815.9" y="81.9" font-size="12" font-family="Arial">42</text>
<circle cx="807.9" cy="89.9" r="6" fill="rgb(20,185,120)" />
<text x="815.9" y="81.9" font-size="12" font-family="Arial">43</text>
<circle cx="807.9" cy="89.9" r="6" fill="rgb(20,185,120)" />
<text x="815.9" y="81.9" font-size="12" font-family="Arial">44</text>
<circle cx="807.9" cy="89.9" r="6" fill="rgb(20,185,120)" />
<text x="815.9" y="81.9" font-size="12" font-family="Arial">45</text>
<circle cx="807.9" cy="89.9" r="6" fill="rgb(20,185,120)" />
<text x="815.9" y="81.9" font-size="12" font-family="Arial">46</text>
<circle cx="807.9" cy="89.9" r="6" fill="rgb(20,185,120)" />
<text x="815.9" y="81.9" font-size="12" font-family="Arial">47</text>
<circle cx="807.9" cy="89.9" r="6" fill="rgb(20,185,120)" />
<text x="815.9" y="81.9" font-size="12" font-family="Arial">48</text>
<circle cx="807.9" cy="89.9" r="6" fill="rgb(20,185,120)" />
<text x="815.9" y="81.9" font-size="12" font-family="Arial">49</text>
<circle cx="807.9" cy="89.9" r="6" fill="rgb(20,185,120)" />
<text x="815.9" y="81.9" font-size="12" font-family="Arial">50</text>
<text x="450.0" y="662" font-size="15" text-anchor="middle" font-family="Arial">ARS capacity kg/day</text>
<text x="22" y="340.0" font-size="15" text-anchor="middle" transform="rotate(-90,22,340.0)" font-family="Arial">OGS capacity kg/day</text>
<text x="-67.3" y="634" font-size="12" text-anchor="middle" font-family="Arial">0</text>
<text x="143.1" y="634" font-size="12" text-anchor="middle" font-family="Arial">5</text>
<text x="353.5" y="634" font-size="12" text-anchor="middle" font-family="Arial">10</text>
<text x="563.9" y="634" font-size="12" text-anchor="middle" font-family="Arial">15</text>
<text x="774.3" y="634" font-size="12" text-anchor="middle" font-family="Arial">20</text>
<text x="984.6" y="634" font-size="12" text-anchor="middle" font-family="Arial">25</text>
<text x="70" y="648.7" font-size="12" text-anchor="end" font-family="Arial">5</text>
<text x="70" y="573.8" font-size="12" text-anchor="end" font-family="Arial">10</text>
<text x="70" y="499.0" font-size="12" text-anchor="end" font-family="Arial">15</text>
<text x="70" y="424.2" font-size="12" text-anchor="end" font-family="Arial">20</text>
<text x="70" y="349.4" font-size="12" text-anchor="end" font-family="Arial">25</text>
<text x="70" y="274.5" font-size="12" text-anchor="end" font-family="Arial">30</text>
<text x="70" y="199.7" font-size="12" text-anchor="end" font-family="Arial">35</text>
<text x="70" y="124.9" font-size="12" text-anchor="end" font-family="Arial">40</text>
<text x="70" y="50.0" font-size="12" text-anchor="end" font-family="Arial">45</text>
</svg>